<!DOCTYPE svg PUBLIC "-//W3C//DTD SVG 20010904//EN" "http://www.w3.org/TR/2001/REC-SVG-20010904/DTD/svg10.dtd">
<svg version="1.0" xmlns="http://www.w3.org/2000/svg" width="512px" height="512px" viewBox="0 0 5120 5120" preserveAspectRatio="xMidYMid meet">
<g id="layer101" fill="#727272" stroke="none">
 <path d="M0 2560 l0 -2560 2560 0 2560 0 0 2560 0 2560 -2560 0 -2560 0 0 -2560z"/>
 </g>
<g id="layer102" fill="#d6d6d6" stroke="none">
 <path d="M1530 3840 c-11 -11 -22 -31 -26 -45 -12 -50 20 -115 57 -115 28 0 59 48 59 90 0 40 -31 90 -56 90 -8 0 -23 -9 -34 -20z"/>
 <path d="M2186 3843 c-3 -10 -48 -193 -101 -408 -53 -214 -100 -407 -106 -427 -7 -29 -17 -39 -45 -50 -26 -9 -34 -17 -32 -33 3 -19 10 -20 128 -20 121 0 125 1 128 22 3 17 -3 24 -22 29 -51 12 -51 14 29 345 42 173 77 318 78 323 2 5 27 -105 56 -244 54 -258 56 -283 31 -371 -7 -26 -19 -40 -40 -49 -20 -8 -30 -20 -30 -34 0 -20 4 -21 125 -21 123 0 125 0 125 22 0 16 -8 25 -25 29 -13 3 -29 11 -34 18 -7 8 7 84 45 242 76 318 102 421 103 409 1 -6 30 -145 66 -310 36 -164 65 -309 65 -322 0 -17 -9 -25 -40 -34 -33 -10 -40 -17 -38 -33 3 -19 10 -20 111 -21 101 0 107 1 107 20 0 14 -13 26 -42 40 -48 22 -46 17 -102 265 -51 229 -107 477 -123 549 -18 76 -36 97 -58 67 -7 -9 -45 -150 -85 -314 -40 -163 -75 -301 -78 -307 -3 -5 -38 135 -76 310 -65 294 -73 320 -93 323 -14 2 -23 -3 -27 -15z"/>
 <path d="M3084 3846 c-41 -18 -99 -77 -123 -124 -42 -82 -53 -147 -49 -280 5 -146 22 -205 77 -278 119 -158 296 -107 368 107 27 82 25 312 -4 391 -57 152 -169 229 -269 184z m121 -68 c40 -36 58 -120 59 -278 1 -212 -34 -331 -108 -367 -32 -15 -37 -15 -60 1 -14 9 -32 29 -41 46 -41 80 -45 366 -6 490 38 117 97 158 156 108z"/>
 <path d="M4024 3846 c-43 -19 -100 -90 -125 -155 -32 -86 -41 -156 -36 -266 5 -130 33 -216 88 -279 50 -57 85 -76 139 -76 34 0 48 7 85 41 l45 42 0 -97 c0 -105 -9 -136 -40 -136 -15 0 -20 -7 -20 -26 0 -19 8 -28 36 -40 20 -9 49 -25 65 -36 60 -45 59 -53 60 429 1 241 4 449 8 463 4 15 15 26 28 28 43 6 39 54 -5 71 -15 5 -43 20 -64 32 -49 29 -68 21 -68 -31 l0 -42 -27 33 c-46 54 -108 71 -169 45z m127 -57 c12 -6 31 -34 45 -62 23 -50 24 -61 24 -270 0 -238 -2 -247 -59 -301 -39 -38 -89 -40 -125 -7 -94 88 -76 540 25 625 33 28 59 32 90 15z"/>
 <path d="M4564 3835 c-56 -29 -79 -31 -88 -10 -3 8 -12 15 -19 15 -16 0 -27 -61 -27 -151 0 -71 22 -81 46 -21 67 160 224 182 224 30 0 -64 -18 -96 -82 -149 -99 -80 -140 -124 -164 -174 -82 -173 58 -367 206 -284 40 23 42 23 55 5 8 -11 21 -16 30 -13 12 5 15 24 17 87 0 44 1 86 2 93 1 6 -7 12 -16 12 -10 0 -28 -22 -45 -55 -29 -55 -80 -100 -113 -100 -36 0 -62 34 -67 87 -7 70 16 115 86 165 158 115 204 196 181 318 -18 93 -86 170 -151 170 -14 0 -48 -11 -75 -25z"/>
 <path d="M410 3818 c0 -18 9 -29 35 -41 l35 -17 0 -384 c0 -413 1 -405 -51 -421 -14 -5 -19 -14 -17 -28 3 -21 7 -22 163 -21 141 0 165 2 207 21 95 43 171 141 198 254 5 24 12 89 16 144 13 233 -65 424 -201 491 -51 24 -61 26 -128 19 -102 -11 -187 -11 -224 -2 -30 8 -33 7 -33 -15z m357 -57 c73 -45 112 -174 113 -375 0 -169 -33 -307 -88 -370 -28 -31 -93 -56 -149 -56 l-53 0 0 388 c0 400 1 411 40 425 35 13 106 6 137 -12z"/>
 <path d="M1050 3816 c0 -18 8 -27 30 -35 l30 -10 0 -283 c0 -295 -2 -308 -42 -308 -36 0 -20 -38 25 -59 23 -11 54 -28 68 -37 15 -10 34 -14 44 -10 15 5 17 15 11 69 -6 62 -6 62 10 32 44 -79 77 -104 141 -105 33 0 46 5 62 26 25 32 27 81 5 112 -22 32 -48 27 -82 -15 -30 -37 -31 -38 -59 -23 -15 8 -37 33 -48 55 -18 36 -20 64 -23 275 -2 129 -1 244 2 256 3 12 17 25 31 28 18 5 25 13 25 31 l0 25 -115 0 c-115 0 -115 0 -115 -24z"/>
 <path d="M3430 3818 c0 -15 11 -29 30 -40 l30 -17 0 -275 c0 -236 -2 -277 -16 -290 -8 -9 -22 -16 -30 -16 -8 0 -14 -10 -14 -24 0 -18 7 -26 28 -31 15 -3 44 -18 64 -32 57 -39 71 -27 66 53 l-4 65 19 -40 c29 -62 79 -101 128 -101 54 0 75 13 89 54 9 27 8 42 -4 70 -20 47 -49 48 -90 0 -28 -32 -34 -34 -57 -25 -17 6 -35 27 -50 58 -23 45 -24 60 -27 272 -2 123 -1 235 3 248 3 13 17 29 30 35 16 7 25 19 25 35 0 23 -1 23 -110 23 -107 0 -110 -1 -110 -22z"/>
 <path d="M2201 2256 c-52 -54 -48 -78 48 -251 160 -286 160 -287 188 -283 23 3 31 -6 71 -82 l45 -85 -26 -38 c-88 -128 -101 -346 -32 -503 28 -63 95 -138 147 -165 45 -23 143 -26 192 -5 19 8 53 33 76 56 129 129 159 395 66 579 -78 154 -206 210 -332 146 -27 -14 -50 -25 -51 -25 0 0 -21 35 -44 78 -37 65 -43 84 -41 127 2 47 -5 63 -108 249 -111 201 -134 236 -155 236 -6 0 -26 -15 -44 -34z m155 -232 c57 -103 104 -193 104 -199 0 -7 -6 -18 -14 -24 -15 -13 -8 -24 -179 284 -52 93 -55 101 -40 117 9 10 18 16 21 13 3 -2 51 -88 108 -191z m457 -458 c45 -18 118 -103 141 -162 10 -28 20 -88 23 -140 5 -75 2 -104 -15 -161 -65 -213 -246 -279 -371 -136 -66 74 -86 138 -85 273 0 104 2 121 27 175 62 133 176 195 280 151z"/>
 <path d="M2605 1050 c-8 -24 11 -53 55 -85 68 -50 134 -41 195 26 29 33 34 43 25 59 -14 26 -22 25 -50 -5 -35 -37 -81 -49 -122 -32 -18 8 -42 24 -52 36 -24 26 -43 27 -51 1z"/>
 </g>

</svg>