<!DOCTYPE svg PUBLIC "-//W3C//DTD SVG 20010904//EN" "http://www.w3.org/TR/2001/REC-SVG-20010904/DTD/svg10.dtd">
<svg version="1.0" xmlns="http://www.w3.org/2000/svg" width="990px" height="990px" viewBox="0 0 9900 9900" preserveAspectRatio="xMidYMid meet">
<g id="layer101" fill="#727174" stroke="none">
 <path d="M0 4950 l0 -4950 4940 0 4940 0 0 4950 0 4950 -4940 0 -4940 0 0 -4950z m3689 1724 c20 -21 25 -36 25 -84 0 -50 -4 -63 -26 -85 -21 -20 -30 -24 -49 -16 -13 5 -27 8 -32 7 -30 -5 -48 132 -20 155 7 6 13 17 13 25 0 7 12 15 28 17 15 2 29 5 32 5 3 1 16 -10 29 -24z m772 16 c11 0 41 -69 34 -80 -3 -5 -1 -11 4 -15 5 -3 10 -13 10 -23 0 -35 12 -95 22 -114 6 -11 8 -22 6 -25 -3 -2 -1 -19 5 -36 5 -18 12 -47 14 -66 3 -19 9 -43 15 -53 6 -11 8 -22 6 -25 -3 -2 -1 -19 5 -36 5 -18 12 -47 14 -66 3 -19 9 -43 15 -53 6 -11 8 -22 6 -25 -3 -2 -1 -19 5 -36 5 -18 12 -45 14 -62 7 -48 15 -66 27 -62 7 3 11 9 10 15 -1 5 2 25 8 43 6 19 17 59 24 89 7 30 27 105 43 167 16 62 27 114 24 117 -2 3 0 12 6 19 7 8 9 17 5 20 -3 4 0 13 6 21 7 8 13 29 13 46 1 17 5 33 9 36 5 2 6 11 3 18 -3 8 -1 17 5 20 6 4 8 13 5 20 -3 8 -1 17 5 20 6 4 8 13 5 20 -3 8 0 17 5 21 6 3 9 11 6 16 -4 5 -3 15 2 22 4 6 8 18 8 26 0 12 53 36 62 28 1 -2 5 -25 8 -52 4 -27 11 -57 16 -67 5 -10 7 -23 4 -28 -3 -5 -1 -11 4 -15 5 -3 10 -13 10 -23 1 -29 7 -57 15 -70 4 -7 6 -16 3 -18 -3 -3 -1 -20 5 -37 5 -18 12 -47 14 -66 3 -19 9 -42 15 -53 5 -10 7 -23 4 -28 -3 -5 -1 -11 4 -15 5 -3 10 -13 10 -23 1 -29 7 -57 15 -70 4 -6 5 -16 1 -21 -3 -5 -1 -12 4 -16 5 -3 10 -13 10 -23 0 -35 12 -95 22 -114 6 -11 8 -22 5 -25 -3 -4 -1 -12 6 -20 6 -7 8 -16 5 -19 -3 -3 -1 -20 5 -37 5 -18 12 -47 14 -66 3 -19 9 -42 15 -53 5 -10 7 -23 4 -28 -3 -5 -1 -11 4 -15 5 -3 9 -14 8 -24 -2 -25 44 -90 63 -89 50 4 60 -2 60 -32 l0 -30 -129 0 -129 0 -5 26 c-4 20 1 27 21 35 14 5 30 8 36 6 6 -2 19 7 29 19 14 19 16 28 7 44 -6 11 -8 25 -5 30 3 5 1 11 -4 15 -5 3 -10 13 -10 23 -1 23 -6 53 -15 78 -3 12 -9 37 -12 55 -10 62 -12 74 -14 74 -2 0 -4 9 -6 20 -2 11 -6 31 -9 45 -3 14 -7 41 -10 60 -3 19 -8 42 -11 50 -4 8 -8 26 -11 40 -2 14 -6 34 -8 45 -2 11 -4 20 -5 20 -3 0 -7 23 -15 79 -3 21 -10 47 -16 57 -5 10 -9 22 -8 26 1 4 1 14 0 21 -1 18 -26 9 -26 -9 -1 -8 -7 -34 -14 -59 -7 -25 -13 -55 -13 -68 0 -12 -4 -25 -9 -28 -4 -2 -6 -11 -3 -18 3 -8 1 -17 -5 -20 -6 -4 -8 -13 -5 -20 3 -8 1 -17 -5 -20 -6 -4 -8 -13 -5 -20 3 -8 0 -17 -5 -21 -6 -3 -9 -10 -6 -15 3 -4 -4 -36 -16 -71 -11 -35 -21 -77 -21 -92 -1 -15 -5 -30 -9 -33 -5 -2 -6 -11 -3 -18 3 -8 1 -17 -5 -20 -6 -4 -8 -13 -5 -20 3 -8 0 -17 -5 -21 -6 -3 -9 -10 -6 -15 3 -5 -2 -29 -11 -55 -8 -26 -16 -56 -18 -68 -1 -12 -6 -30 -11 -41 -9 -21 5 -50 26 -52 8 0 24 -2 37 -2 17 -2 22 -8 22 -32 l0 -30 -139 0 c-77 0 -146 -3 -154 -6 -11 -4 -14 2 -12 28 1 19 8 34 16 34 8 1 21 2 29 3 16 1 44 55 41 78 -1 6 3 14 8 18 6 3 8 12 5 19 -3 8 0 17 5 21 6 3 9 11 5 16 -3 5 -1 16 6 24 9 10 9 19 0 35 -6 12 -9 24 -7 27 3 2 1 19 -5 36 -5 18 -12 42 -14 54 -3 13 -7 35 -10 50 -3 16 -7 37 -9 48 -2 11 -4 20 -5 20 -2 0 -4 9 -6 20 -2 11 -6 31 -9 45 -3 14 -7 43 -10 65 -3 22 -8 47 -12 55 -4 8 -8 22 -10 30 -1 8 -5 26 -8 40 -8 37 -16 83 -19 102 -7 48 -37 6 -38 -55 -1 -15 -5 -30 -9 -33 -5 -2 -6 -11 -3 -18 3 -8 0 -17 -5 -21 -6 -3 -9 -11 -6 -16 4 -5 3 -15 -2 -21 -4 -7 -8 -17 -8 -23 -1 -5 -7 -30 -14 -55 -7 -25 -13 -55 -13 -68 0 -12 -4 -25 -9 -28 -4 -2 -6 -11 -3 -18 3 -8 1 -17 -5 -20 -6 -4 -8 -13 -5 -20 3 -8 0 -17 -5 -21 -6 -3 -9 -11 -6 -16 4 -5 3 -15 -2 -21 -4 -7 -8 -17 -8 -23 -1 -5 -7 -30 -14 -55 -7 -25 -13 -55 -13 -68 0 -12 -4 -25 -9 -28 -4 -2 -6 -11 -3 -18 3 -8 1 -17 -5 -20 -6 -4 -8 -13 -5 -20 3 -8 1 -17 -4 -20 -14 -8 -7 -87 9 -97 8 -4 24 -6 36 -2 20 4 23 1 23 -26 l0 -32 -152 3 -153 3 -3 28 c-3 27 5 33 51 29 10 -1 20 4 22 11 2 6 10 26 16 42 7 17 11 35 10 42 -1 6 3 14 8 18 6 3 8 12 5 19 -3 8 -1 17 5 20 6 4 8 13 5 20 -3 8 -1 17 5 20 6 4 8 13 5 20 -3 8 0 17 5 21 6 3 9 11 6 16 -4 5 -3 15 1 21 5 7 9 19 11 28 3 22 19 85 41 167 11 40 17 74 14 77 -2 3 1 12 7 20 7 8 13 29 13 46 1 17 5 33 9 36 5 2 6 11 3 18 -3 8 -1 17 5 20 6 4 8 13 5 20 -3 8 -1 17 5 20 6 4 8 13 5 20 -3 8 -1 17 5 20 6 4 8 13 5 20 -3 8 -1 17 5 20 6 4 8 13 5 20 -3 8 0 17 5 21 6 3 9 11 6 16 -4 5 -3 14 1 21 4 7 9 24 11 38 1 14 11 54 23 89 11 35 20 75 20 88 0 19 4 24 16 19 9 -3 20 -6 25 -6z m1187 -1 c34 -2 56 -7 59 -16 3 -7 12 -13 19 -13 20 0 51 -30 75 -71 41 -73 80 -159 85 -191 3 -18 7 -44 10 -58 5 -31 5 -234 0 -275 -11 -78 -17 -98 -46 -159 -17 -36 -35 -66 -40 -66 -6 0 -10 -6 -10 -13 0 -12 -56 -67 -68 -67 -3 0 -14 -7 -24 -17 -23 -21 -151 -22 -188 -1 -39 21 -130 118 -130 138 0 10 -7 23 -15 30 -8 7 -15 23 -15 36 0 12 -4 25 -9 28 -15 10 -22 84 -23 236 -1 156 4 207 27 254 8 16 15 33 15 38 0 5 11 24 25 42 14 18 25 36 25 40 0 4 16 23 35 43 19 20 35 32 35 28 0 -5 10 1 23 12 26 24 47 33 67 27 8 -2 39 -4 68 -5z m1398 -20 c11 -11 23 -16 27 -12 4 3 16 -2 26 -11 11 -10 28 -19 38 -20 13 -2 18 -12 18 -37 0 -32 -2 -34 -32 -34 -18 -1 -36 -4 -40 -9 -4 -4 -9 -265 -10 -579 -2 -522 -4 -572 -19 -575 -9 -2 -29 5 -45 17 -15 12 -35 21 -42 21 -8 0 -20 6 -26 14 -7 8 -23 17 -36 20 -16 4 -25 14 -25 25 0 11 -2 26 -5 34 -4 10 2 14 25 14 16 0 33 3 37 7 5 4 9 69 11 144 l3 137 -25 -31 c-43 -54 -73 -67 -148 -67 -49 0 -73 4 -86 16 -10 10 -24 17 -30 17 -7 0 -12 7 -12 15 0 8 -7 15 -15 15 -8 0 -15 4 -15 9 0 6 -11 22 -25 37 -25 27 -63 116 -71 169 -19 114 -22 237 -9 330 5 33 9 65 10 70 1 6 6 23 13 38 7 16 12 36 12 45 0 9 9 28 20 42 11 14 20 33 20 43 0 10 7 20 15 23 8 4 15 12 15 20 0 8 7 14 15 14 8 0 15 7 15 15 0 8 9 15 19 15 10 0 21 6 24 14 4 9 28 13 88 13 l82 0 43 -42 c46 -47 56 -48 47 -4 -3 16 -3 35 0 42 7 19 66 10 93 -14z m453 19 c25 -1 45 -7 48 -15 3 -7 12 -13 19 -13 8 0 18 -8 21 -17 4 -10 19 -36 35 -59 59 -87 57 -205 -4 -314 -18 -32 -104 -120 -118 -120 -5 0 -10 -4 -10 -8 0 -10 -96 -82 -110 -82 -5 0 -10 -7 -10 -15 0 -9 -6 -18 -14 -21 -25 -9 -39 -61 -34 -126 5 -80 33 -113 95 -113 34 0 46 7 77 39 20 21 36 42 36 46 0 4 9 15 20 25 11 10 20 28 20 39 1 32 27 63 42 48 19 -19 8 -244 -12 -250 -6 -2 -20 5 -31 17 -20 21 -20 21 -58 2 -23 -12 -63 -21 -103 -22 -64 -3 -67 -2 -109 36 -70 62 -81 91 -79 205 1 99 1 99 11 105 5 4 9 14 9 24 0 10 9 26 20 36 11 10 20 22 20 28 0 14 121 128 131 122 4 -3 13 3 19 14 5 11 22 26 37 33 25 12 60 61 83 116 13 30 13 89 0 97 -5 3 -10 13 -10 21 0 17 -27 44 -62 63 -32 16 -72 8 -96 -19 -9 -11 -22 -20 -29 -20 -19 0 -70 -75 -77 -114 -7 -37 -29 -61 -48 -53 -14 5 -15 70 -4 180 5 47 12 67 24 72 9 3 18 2 20 -3 1 -5 9 -18 17 -28 11 -15 16 -17 26 -6 7 6 21 12 30 12 9 0 23 7 30 16 17 21 49 34 69 28 9 -2 35 -5 59 -6z m-4871 -19 c26 -11 57 -25 69 -31 43 -21 116 -89 135 -126 11 -20 26 -44 34 -53 8 -8 14 -22 14 -30 0 -8 4 -19 10 -25 9 -9 23 -62 37 -144 7 -43 7 -292 -1 -340 -16 -100 -26 -134 -58 -190 -4 -8 -12 -25 -18 -37 -19 -45 -142 -154 -157 -140 -3 4 -17 -2 -31 -13 -16 -13 -33 -18 -48 -14 -12 3 -28 3 -34 -1 -6 -4 -91 -7 -188 -6 l-177 0 0 27 c0 22 7 29 34 39 60 20 61 27 61 515 0 480 -1 490 -57 500 -22 4 -29 12 -34 40 -9 42 -4 48 21 32 11 -6 26 -9 34 -6 8 3 17 1 21 -5 14 -24 208 -7 240 21 15 13 43 9 93 -13z m416 13 c7 -11 185 -9 209 2 20 10 30 3 34 -22 4 -30 -7 -51 -35 -64 l-27 -13 -5 -299 c-3 -164 -2 -300 2 -302 3 -2 10 -19 13 -37 12 -54 34 -87 67 -100 34 -14 78 -3 78 19 0 18 49 46 73 42 14 -2 29 -17 40 -40 16 -33 17 -42 6 -75 -18 -51 -28 -63 -53 -63 -12 0 -27 -5 -34 -12 -9 -9 -15 -9 -24 0 -7 7 -24 12 -39 12 -36 0 -73 31 -99 84 -34 72 -48 76 -43 14 8 -79 6 -100 -8 -108 -19 -12 -71 14 -121 63 -10 9 -27 17 -37 17 -20 0 -35 25 -25 41 3 5 11 9 19 9 7 0 23 12 34 26 20 26 21 38 21 360 0 254 -3 336 -12 344 -7 5 -25 20 -41 31 -25 19 -30 40 -18 77 2 6 20 1 25 -6z m2950 0 c7 -11 195 -12 202 -1 3 5 14 9 25 9 16 0 19 -7 19 -40 0 -36 -3 -41 -28 -46 -48 -10 -52 -34 -52 -325 0 -217 3 -272 15 -295 8 -16 15 -36 15 -44 0 -8 9 -26 20 -40 11 -14 20 -31 20 -37 0 -7 8 -13 18 -13 10 0 22 -4 28 -9 14 -14 53 6 64 33 5 13 19 27 32 31 13 4 31 9 41 11 10 3 17 0 17 -9 0 -8 6 -20 14 -26 20 -17 9 -110 -17 -139 -12 -12 -27 -20 -35 -17 -8 3 -21 0 -28 -6 -11 -9 -18 -8 -29 1 -8 6 -19 9 -25 5 -11 -7 -80 31 -80 45 0 5 -11 21 -25 36 -13 14 -31 47 -40 73 l-15 46 6 -55 c8 -74 5 -131 -7 -146 -12 -15 -27 -8 -98 44 -28 20 -51 30 -63 26 -13 -4 -18 0 -18 15 0 10 -3 27 -7 36 -5 14 -2 16 15 11 16 -6 28 0 47 21 l24 28 1 330 c0 284 -2 334 -16 353 -8 12 -19 20 -24 17 -5 -3 -18 -1 -29 4 -13 8 -18 19 -16 43 2 18 3 34 4 36 2 5 20 1 25 -6z m-1458 -1961 c7 -13 17 -28 23 -34 6 -6 11 -19 11 -28 0 -9 7 -23 17 -30 9 -8 27 -37 39 -66 13 -28 28 -54 33 -58 6 -3 11 -13 11 -21 0 -9 13 -34 28 -57 43 -64 51 -78 73 -127 12 -25 27 -52 35 -60 18 -21 25 -86 13 -117 -7 -18 -5 -30 6 -46 8 -12 15 -27 15 -34 0 -8 16 -36 35 -64 19 -28 35 -59 35 -70 0 -26 21 -35 36 -14 17 23 62 46 99 51 17 2 42 5 56 8 35 5 159 -37 171 -58 5 -9 15 -16 22 -16 17 0 52 -39 61 -67 3 -13 11 -23 16 -23 13 0 69 -122 69 -152 0 -13 3 -28 8 -32 10 -10 12 -43 14 -166 0 -89 -5 -165 -12 -165 -1 0 -3 -12 -5 -27 -5 -36 -67 -160 -94 -189 -13 -13 -34 -39 -48 -56 -14 -18 -33 -33 -43 -33 -10 0 -20 -6 -23 -14 -6 -15 -29 -19 -133 -20 -64 -1 -77 3 -123 32 -29 17 -55 32 -59 32 -11 0 -52 43 -52 56 0 6 -7 14 -15 18 -8 3 -15 14 -15 25 0 10 -7 21 -15 25 -8 3 -15 14 -15 25 0 11 -4 22 -9 25 -5 3 -12 23 -16 43 -4 21 -10 42 -13 48 -10 15 -13 50 -14 175 -1 122 7 189 22 204 6 6 10 18 10 28 0 10 11 36 25 58 14 22 25 46 25 54 0 8 6 19 13 23 27 16 25 49 -4 88 -16 21 -29 45 -29 53 0 7 -14 34 -32 58 -24 34 -38 44 -59 44 -30 0 -79 49 -79 80 0 9 -7 23 -16 31 -15 12 -28 34 -74 124 -11 22 -27 49 -35 59 -8 11 -15 26 -15 34 0 9 -11 30 -25 48 -14 18 -25 39 -25 47 0 8 -7 20 -16 28 -35 29 -66 130 -44 144 6 3 10 14 10 24 0 10 15 30 33 43 56 43 75 45 93 9z"/>
 <path d="M5586 6612 c-27 -15 -51 -34 -54 -42 -2 -8 -15 -44 -29 -79 -14 -36 -27 -76 -29 -90 -3 -14 -7 -44 -11 -66 -8 -53 -7 -288 1 -345 10 -68 11 -75 18 -85 3 -6 11 -26 17 -45 12 -39 66 -80 103 -80 13 0 29 9 36 20 7 11 18 20 25 20 7 0 18 10 26 21 15 26 59 167 68 224 9 49 8 305 0 360 -4 22 -9 55 -12 73 -7 47 -40 106 -69 125 -31 21 -30 21 -90 -11z"/>
 <path d="M6791 6624 c-41 -21 -91 -75 -91 -98 0 -12 -7 -31 -15 -42 -8 -12 -12 -24 -9 -27 3 -3 2 -12 -2 -19 -8 -13 -9 -16 -20 -88 -10 -60 -10 -326 0 -370 4 -19 9 -43 10 -52 5 -37 49 -104 81 -125 42 -28 62 -28 95 -3 14 11 31 20 38 20 7 0 17 10 22 23 5 12 18 36 29 52 20 28 21 44 21 306 0 270 0 276 -24 325 -38 77 -95 119 -135 98z"/>
 <path d="M2478 6602 c-10 -2 -18 -10 -18 -18 0 -8 -7 -17 -14 -20 -13 -5 -15 -77 -16 -490 l-1 -484 49 0 c27 0 62 -3 78 -6 23 -4 40 3 82 35 30 22 63 57 74 78 11 21 24 42 29 48 5 5 9 15 9 21 0 7 5 25 11 41 7 15 13 35 15 43 1 8 6 31 10 50 10 46 10 364 0 415 -4 22 -9 47 -10 55 -2 8 -7 24 -11 35 -5 11 -16 40 -26 65 -18 48 -95 134 -110 124 -5 -3 -14 -2 -19 1 -12 8 -107 13 -132 7z"/>
 <path d="M4469 4644 c-19 -21 -21 -28 -11 -42 7 -9 18 -28 24 -42 7 -14 23 -40 35 -59 13 -19 23 -41 23 -51 0 -9 9 -25 20 -35 11 -10 20 -25 20 -33 0 -8 11 -30 25 -48 14 -18 25 -39 25 -47 0 -8 7 -20 16 -28 15 -12 41 -56 66 -112 7 -15 17 -26 23 -24 17 6 35 51 25 61 -6 6 -10 17 -10 25 0 8 -11 29 -25 47 -14 18 -25 38 -25 44 0 7 -11 25 -25 42 -14 16 -25 35 -25 42 0 7 -11 27 -25 46 -14 19 -25 40 -25 48 0 9 -11 30 -25 48 -14 18 -30 43 -36 56 -6 13 -18 37 -28 55 l-18 32 -24 -25z"/>
 <path d="M5085 3873 c-11 -3 -26 -10 -32 -15 -7 -6 -20 -8 -28 -4 -8 3 -23 -4 -34 -16 -11 -11 -30 -26 -43 -32 -12 -6 -28 -22 -34 -35 -7 -13 -16 -26 -22 -30 -5 -3 -17 -24 -26 -46 -10 -22 -24 -52 -32 -66 -7 -14 -11 -29 -7 -32 3 -4 0 -13 -7 -22 -19 -23 -18 -232 1 -275 1 -3 3 -9 4 -15 3 -18 16 -49 31 -78 7 -16 14 -35 14 -42 0 -8 9 -19 20 -25 11 -6 20 -16 20 -23 0 -24 83 -87 114 -87 7 0 19 -7 26 -15 16 -19 88 -20 115 -2 11 7 36 19 55 27 40 15 90 58 90 76 0 7 6 17 14 21 21 13 72 141 85 218 7 42 6 134 -2 175 -13 69 -47 162 -72 194 -14 18 -25 38 -25 44 0 7 -6 12 -14 12 -7 0 -16 9 -19 21 -3 12 -10 18 -16 15 -6 -4 -16 2 -23 14 -7 11 -24 20 -38 20 -14 1 -36 7 -50 15 -26 15 -33 16 -65 8z m-65 -683 c12 -16 30 -30 40 -30 10 0 22 -4 25 -10 18 -29 91 3 143 62 13 16 29 25 37 21 20 -7 19 -67 0 -83 -8 -7 -15 -19 -15 -26 0 -8 -6 -14 -14 -14 -8 0 -16 -7 -20 -15 -3 -8 -14 -15 -25 -15 -11 0 -23 -5 -26 -10 -4 -6 -14 -9 -23 -6 -10 3 -35 6 -57 7 -82 5 -157 85 -135 144 8 22 13 24 29 15 11 -5 29 -23 41 -40z"/>
 <path d="M9895 4950 c0 -2725 1 -3840 2 -2477 2 1362 2 3592 0 4955 -1 1362 -2 247 -2 -2478z"/>
 </g>
<g id="layer102" fill="#efefef" stroke="none">
 <path d="M9895 4950 c0 -2725 1 -3840 2 -2477 2 1362 2 3592 0 4955 -1 1362 -2 247 -2 -2478z"/>
 </g>

</svg>